<?xml version="1.0" encoding="utf-8"?>
<!-- Generator: Adobe Illustrator 24.0.1, SVG Export Plug-In . SVG Version: 6.00 Build 0)  -->
<svg version="1.1" id="Layer_1" xmlns="http://www.w3.org/2000/svg" xmlns:xlink="http://www.w3.org/1999/xlink" x="0px" y="0px"
	 viewBox="0 0 100 30" style="enable-background:new 0 0 100 30;" xml:space="preserve">
<style type="text/css">
	.st0{fill:#EB2C41;}
	.st1{fill:#B02029;}
	.st2{fill:#FFFFFF;}
</style>
<g>
	<polygon class="st0" points="14.9,6.6 14.9,11.8 11.5,15.6 9.3,18.1 6.7,15.9 8.9,13.4 	"/>
	<polygon class="st1" points="16.1,19.4 10.9,19.4 9.3,18.1 11.5,15.6 	"/>
	<polygon class="st1" points="7.8,19.4 2.6,19.4 1.6,18.5 1.3,18.3 1,18.1 1,14.9 2.4,14.9 3.5,15.8 3.8,16 5.4,17.4 	"/>
	<polygon class="st0" points="14.6,3.8 7.3,12.1 5.1,14.6 3.8,16 1.6,18.5 1.3,18.3 1,18.1 1,14 2.4,12.4 3.5,11.2 10,3.8 	"/>
	<polygon class="st0" points="4.3,3.8 4.3,7.5 1,11.2 1,3.8 	"/>
	<path class="st2" d="M18,19v-7c0-0.9,0.1-1.7,0.3-2.3c0.2-0.6,0.5-1.2,1-1.6c0.5-0.4,1-0.7,1.8-0.9c0.7-0.2,1.6-0.3,2.6-0.3h2.2
		v2.7h-2.1c-0.5,0-0.8,0-1.2,0.1c-0.3,0.1-0.6,0.2-0.7,0.4c-0.2,0.2-0.3,0.4-0.4,0.7c-0.1,0.3-0.1,0.7-0.1,1.2v7H18z"/>
	<path class="st2" d="M42.4,9.4c-0.2-0.6-0.5-1-0.9-1.4c-0.4-0.4-1-0.6-1.7-0.8c-0.5-0.1-1.1-0.2-1.8-0.3v2.4c0.4,0.1,0.7,0.2,1,0.4
		c0.3,0.3,0.5,0.8,0.5,1.5v0.3h-9c-0.8,0-1.5,0.1-2.1,0.2c-0.5,0.1-1,0.3-1.3,0.6c-0.3,0.3-0.5,0.6-0.7,1c-0.1,0.4-0.2,0.8-0.2,1.4
		v1.1c0,0.5,0.1,0.9,0.2,1.3c0.1,0.4,0.4,0.7,0.7,1c0.3,0.3,0.8,0.5,1.4,0.6c0.6,0.2,1.3,0.2,2.2,0.2h6.5c1.1,0,2-0.1,2.7-0.2
		c0.7-0.2,1.3-0.4,1.7-0.8c0.4-0.4,0.7-0.9,0.9-1.5c0.2-0.6,0.3-1.3,0.3-2.2v-2.9C42.7,10.6,42.6,9.9,42.4,9.4z M39.4,14.5
		c0,0.4,0,0.8-0.1,1.1c-0.1,0.3-0.2,0.5-0.4,0.7c-0.2,0.2-0.4,0.3-0.7,0.3c-0.3,0.1-0.6,0.1-1,0.1h-6.3c-0.4,0-0.8-0.1-1-0.2
		c-0.2-0.2-0.4-0.5-0.4-0.9v-0.8c0-0.5,0.1-0.8,0.3-1c0.2-0.2,0.5-0.3,0.9-0.3h8.6V14.5z"/>
	<path class="st2" d="M57.5,19v-6.7c0-0.5,0-0.9-0.1-1.2c-0.1-0.3-0.2-0.6-0.4-0.8c-0.2-0.2-0.5-0.3-0.8-0.4
		c-0.3-0.1-0.8-0.1-1.3-0.1h-3.6c-0.5,0-1,0-1.3,0.1c-0.3,0.1-0.6,0.2-0.8,0.4c-0.2,0.2-0.4,0.4-0.4,0.8c-0.1,0.3-0.1,0.7-0.1,1.2
		V19h-3.3v-6.9c0-1,0.1-1.8,0.3-2.5c0.2-0.7,0.5-1.2,0.9-1.6c0.4-0.4,1-0.7,1.8-0.9C48.9,7,49.8,6.9,51,6.9h4c1.1,0,2.1,0.1,2.8,0.3
		c0.7,0.2,1.3,0.5,1.8,0.9C60,8.5,60.4,9,60.5,9.7c0.2,0.7,0.3,1.5,0.3,2.5V19H57.5z"/>
	<path class="st2" d="M69.1,19c-1.1,0-2-0.1-2.8-0.3c-0.7-0.2-1.3-0.5-1.8-0.9c-0.4-0.4-0.8-0.9-0.9-1.6c-0.2-0.7-0.3-1.5-0.3-2.4
		v-1.6c0-1,0.1-1.8,0.3-2.5c0.2-0.7,0.5-1.2,0.9-1.6c0.4-0.4,1-0.7,1.8-0.9C67,7,68,6.9,69.1,6.9h4c1.1,0,2.1,0.1,2.8,0.3
		c0.7,0.2,1.3,0.5,1.8,0.9c0.4,0.4,0.8,1,0.9,1.6c0.2,0.7,0.3,1.5,0.3,2.5v1.6c0,1-0.1,1.8-0.3,2.4c-0.2,0.7-0.5,1.2-0.9,1.6
		c-0.4,0.4-1,0.7-1.8,0.9c-0.7,0.2-1.7,0.3-2.8,0.3H69.1z M75.6,12.2c0-0.5,0-0.9-0.1-1.3c-0.1-0.3-0.2-0.6-0.4-0.8
		c-0.2-0.2-0.5-0.3-0.9-0.4c-0.4-0.1-0.9-0.1-1.5-0.1h-3.1c-0.6,0-1.1,0-1.5,0.1s-0.7,0.2-0.9,0.4c-0.2,0.2-0.4,0.4-0.4,0.8
		c-0.1,0.3-0.1,0.7-0.1,1.3v1.4c0,0.5,0,0.9,0.1,1.2c0.1,0.3,0.2,0.6,0.4,0.8c0.2,0.2,0.5,0.3,0.9,0.4c0.4,0.1,0.9,0.1,1.5,0.1h3.1
		c0.6,0,1.1,0,1.5-0.1c0.4-0.1,0.7-0.2,0.9-0.4c0.2-0.2,0.4-0.4,0.4-0.8c0.1-0.3,0.1-0.7,0.1-1.2V12.2z"/>
	<path class="st2" d="M87.2,19c-1.1,0-2-0.1-2.8-0.3c-0.7-0.2-1.3-0.5-1.8-0.9c-0.4-0.4-0.8-0.9-0.9-1.6c-0.2-0.7-0.3-1.5-0.3-2.4
		v-1.6c0-1,0.1-1.8,0.3-2.5c0.2-0.7,0.5-1.2,0.9-1.6c0.4-0.4,1-0.7,1.8-0.9c0.7-0.2,1.7-0.3,2.8-0.3h8.8v2.9h-8.6
		c-0.5,0-0.9,0-1.3,0.1c-0.3,0.1-0.6,0.2-0.8,0.4c-0.2,0.2-0.3,0.4-0.4,0.8c-0.1,0.3-0.1,0.7-0.1,1.2v1.4c0,0.5,0,0.9,0.1,1.2
		c0.1,0.3,0.2,0.6,0.4,0.8c0.2,0.2,0.5,0.3,0.8,0.4c0.3,0.1,0.8,0.1,1.3,0.1h8.7V19H87.2z"/>
	<path class="st2" d="M37.9,6.9v2.4c-0.5,0-1,0-1.5,0h-8.1V6.9h8.1C36.9,6.9,37.5,6.9,37.9,6.9z"/>
	<g>
		<path class="st2" d="M66.4,23.5h0.9v1.4c-0.4,0.4-0.9,0.7-1.6,0.7c-0.6,0-1.1-0.2-1.5-0.6c-0.4-0.4-0.6-0.9-0.6-1.5
			s0.2-1.1,0.6-1.5c0.4-0.4,0.9-0.6,1.5-0.6s1.1,0.2,1.5,0.6l-0.5,0.7c-0.2-0.2-0.3-0.3-0.5-0.3c-0.2-0.1-0.3-0.1-0.5-0.1
			c-0.3,0-0.6,0.1-0.9,0.3c-0.2,0.2-0.3,0.5-0.3,0.9s0.1,0.7,0.3,0.9c0.2,0.2,0.5,0.3,0.8,0.3c0.3,0,0.6-0.1,0.8-0.2V23.5z"/>
		<path class="st2" d="M74.2,22.8c0,0.6-0.3,1.1-0.8,1.2l1,1.4h-1.1l-0.9-1.3h-0.6v1.3h-0.9v-4h1.5c0.6,0,1.1,0.1,1.3,0.3
			S74.2,22.4,74.2,22.8z M73.1,23.3c0.1-0.1,0.2-0.3,0.2-0.5s-0.1-0.4-0.2-0.4c-0.1-0.1-0.3-0.1-0.6-0.1h-0.7v1.2h0.7
			C72.8,23.4,73,23.4,73.1,23.3z"/>
		<path class="st2" d="M81.3,24.9c-0.4,0.4-0.9,0.6-1.5,0.6s-1.1-0.2-1.5-0.6c-0.4-0.4-0.6-0.9-0.6-1.5c0-0.6,0.2-1.1,0.6-1.5
			c0.4-0.4,0.9-0.6,1.5-0.6s1.1,0.2,1.5,0.6c0.4,0.4,0.6,0.9,0.6,1.5C81.9,24.1,81.7,24.5,81.3,24.9z M81,23.5
			c0-0.4-0.1-0.7-0.3-0.9c-0.2-0.3-0.5-0.4-0.8-0.4s-0.6,0.1-0.8,0.4c-0.2,0.3-0.3,0.6-0.3,0.9c0,0.4,0.1,0.7,0.3,0.9
			c0.2,0.2,0.5,0.4,0.8,0.4s0.6-0.1,0.8-0.4C80.9,24.1,81,23.8,81,23.5z"/>
		<path class="st2" d="M86.6,24.5c0.1,0.2,0.3,0.3,0.6,0.3s0.5-0.1,0.6-0.3c0.1-0.2,0.2-0.4,0.2-0.8v-2.2h0.9v2.2
			c0,0.6-0.2,1-0.5,1.3c-0.3,0.3-0.7,0.5-1.2,0.5s-0.9-0.2-1.2-0.5c-0.3-0.3-0.5-0.8-0.5-1.3v-2.2h0.9v2.2
			C86.3,24,86.4,24.3,86.6,24.5z"/>
		<path class="st2" d="M95.4,21.9c0.3,0.2,0.4,0.6,0.4,1.1s-0.1,0.9-0.4,1.1c-0.3,0.2-0.7,0.3-1.3,0.3h-0.5v1.1h-0.9v-4h1.4
			C94.7,21.5,95.1,21.6,95.4,21.9z M94.8,23.4c0.1-0.1,0.2-0.3,0.2-0.5c0-0.2-0.1-0.4-0.2-0.5s-0.4-0.1-0.6-0.1h-0.5v1.3h0.6
			C94.5,23.6,94.7,23.5,94.8,23.4z"/>
	</g>
</g>
</svg>
